<svg width="256" height="256" viewBox="0 0 256 256" xmlns="http://www.w3.org/2000/svg" fill="#FFFFFF">
  <path d="M177.7 60.5c-8.1 9.8-13.1 23-12.1 35.8 12.6 1 25.3-6.4 33.9-16 7.6-8.5 13.1-21 12.1-33.3-12.3.5-27.1 8-33.9 13.5z"/>
  <path d="M213.9 130.2c-.2-22.4 18.4-33.2 19.3-33.7-10.5-15.3-26.8-17.4-32.6-17.7-13.9-1.4-27.1 8.2-34.1 8.2-7 0-17.9-7.9-29.4-7.7-15.1.2-29.1 8.8-36.9 22.3-15.8 27.4-4 67.9 11.3 90.1 7.5 10.9 16.4 23.2 28.1 22.8 11.3-.5 15.6-7.4 29.3-7.4 13.7 0 17.7 7.4 29.5 7.2 12.3-.2 20-11 27.5-22 8.7-12.7 12.3-25.1 12.5-25.7-.3-.1-23.9-9.2-24-36.7z"/>
</svg>
